<?xml version="1.0" encoding="UTF-8"?>
<svg xmlns="http://www.w3.org/2000/svg" version="1.1" viewBox="0 0 595.28 841.89">
  <defs>
    <style>
      .cls-1 {
        fill: #E0A800;
      }
    </style>
  </defs>
  <!-- Generator: Adobe Illustrator 28.7.1, SVG Export Plug-In . SVG Version: 1.2.0 Build 142)  -->
  <g>
    <g id="Capa_1">
      <path class="cls-1" d="M440.11,601.5c0-30.83,0-61.65,0-92.48,0-1.67.05-3.34-.1-4.99-.28-3.23-1.64-4.68-5.28-3.88-3.53.78-7.25,1.08-10.88,1.01-7.17-.13-7.54.04-7.54,7.43-.02,23.16.06,46.32-.08,69.48-.02,3.78-.12,7.89-1.56,11.26-2.64,6.19-5.99,12.15-9.6,17.85-12.07,19.05-24.31,37.99-36.63,56.87-9.42,14.43-18.66,29-28.74,42.96-6.71,9.3-20.49,10.02-30.39,3.1-10.17-7.1-9.83-22.36-5.38-29.23,10.17-15.72,20.4-31.41,30.5-47.18,10.46-16.33,20.39-33.01,31.38-48.98,4.19-6.1,5.55-12.04,5.52-19.05-.15-33.82.15-67.65-.27-101.47-.07-5.91-2.46-11.91-4.36-17.67-2.65-8-5.82-15.83-8.82-23.72-4.59-12.08-9.27-24.13-13.83-36.22-4.27-11.3-8.44-22.63-12.64-33.95-1.44-3.89-2.84-7.8-4.28-11.69-10.37-28.09,1.05-55.52,25.39-69.32,6.57-3.73,14.11-5.78,21.22-8.55,12.02-4.68,24.1-9.22,36.08-14,13.24-5.29,26.38-10.82,39.59-16.16,4.49-1.81,5.17-3.66,3.38-7.96-4.53-10.84-8.8-21.78-13.19-32.68-2.91-7.22-5.69-14.51-8.83-21.63-2.19-4.96-4.81-5.6-10.21-3.38-2.75,1.13-5.58,2.05-8.39,3.04-.47.16-.98.17-1.47.29-3.17.76-5.01-1.33-4.44-3.69,1.04-4.34-9.11-8.63-.03-12.63,3.31-1.46,6.83-2.42,10.24-3.66,3.65-1.32,6.23-3.45,6.92-7.67,2.83-17.43,16.48-21.57,30.61-17.39,4.23,1.25,8.26,5.71,10.73,9.72,3.59,5.84,5.81,12.55,8.39,18.98,3.15,7.84,5.97,15.81,9.1,23.65,4.36,10.92,8.93,21.76,13.34,32.66,3.1,7.67,5.96,15.44,9.17,23.06,4.81,11.42-1.31,25.14-12.76,29.61-9.72,3.8-19.1,8.43-28.63,12.73-9.96,4.49-19.87,9.11-29.88,13.47-4.42,1.93-5.25,4.19-3.35,8.56,3.37,7.73,6.43,15.61,9.46,23.48,3.21,8.33,6.23,16.73,9.35,25.09,3.29,8.83,6.53,17.68,9.93,26.47,4.41,11.43,9.21,22.71,13.34,34.24,3.4,9.5,5.98,19.29,9.09,28.89,5.2,16.06,3.75,32.63,3.77,49.06.07,69.15-.02,138.3.06,207.45,0,6.9-1.04,13.2-6.12,18.31-6.26,6.3-16.93,9.25-23.84,6.03-8.89-4.14-14.88-10.82-14.93-21.09-.17-31.49-.06-62.98-.06-94.47h-.07Z"/>
      <path class="cls-1" d="M395.81,184.9c1.52,27.01-21.52,46.78-43.75,48.45-28.46,2.14-51.16-21.77-51.22-46.78-.06-28.54,20.18-48.34,47-48.89,25.46-.52,48.25,18.84,47.96,47.21Z"/>
      <path class="cls-1" d="M86.56,301.82c.5-9.48.91-18.96,1.53-28.44.44-6.6,2.68-8.75,8.96-10.91,12.54-4.31,24.93-9.03,37.44-13.43,8.73-3.07,17.59-5.76,26.32-8.83,8.74-3.07,17.36-6.47,26.08-9.58,8.26-2.95,16.59-5.72,24.88-8.59,9.22-3.19,18.42-6.4,27.63-9.61,8.91-3.1,17.83-6.19,26.72-9.34,5.31-1.88,10.69-3.62,15.84-5.87,3.83-1.67,6.08-.79,7.33,3.01.78,2.37,1.45,4.78,2.05,7.2,1.05,4.21-.5,6.12-4.88,7.39-8.87,2.57-17.48,6.02-26.2,9.1-8.89,3.14-17.78,6.27-26.66,9.43-9.21,3.28-18.4,6.62-27.61,9.89-8.43,2.99-16.88,5.92-25.33,8.85-12.82,4.46-25.66,8.86-38.46,13.39-4.2,1.49-8.4,3.08-12.37,5.07-1.06.53-2.15,3.08-1.74,4.13,4.03,10.32,8.2,20.59,12.66,30.73,4.52,10.27,1.63,19.73-9.53,27.38-8.03,5.5-16.82,8.72-26.96,8.93-10.69.22-17.65-8.6-18.02-17.43-.31-7.48-.06-14.99-.06-22.48.13,0,.25,0,.38,0Z"/>
    </g>
  </g>
</svg>